name C:/MyDriveSym/Projects/mobilecap/Data\Session20210823_0002\mocap\ForceDataProcessed\walkingTS1_forces.mot
datacolumns 19
datarows 19
range 1.06450000 1.07350000
endheader 
time	R_ground_force_vx	R_ground_force_vy	R_ground_force_vz	R_ground_force_px	R_ground_force_py	R_ground_force_pz	R_ground_torque_x	R_ground_torque_y	R_ground_torque_z	L_ground_force_vx	L_ground_force_vy	L_ground_force_vz	L_ground_force_px	L_ground_force_py	L_ground_force_pz	L_ground_torque_x	L_ground_torque_y	L_ground_torque_z	
          1.06450000	          0.00000000	          0.00000000	          0.00000000	          1.29621200	          0.00000000	         -0.10842500	          0.00000000	          0.00000000	          0.00000000	         54.13578700	        587.60181700	         52.55164400	          0.97471800	          0.00600000	         -0.36067700	          0.00000000	          5.02248400	          0.00000000	
          1.06500000	          0.00000000	          0.00000000	          0.00000000	          1.29748500	          0.00000000	         -0.10839300	          0.00000000	          0.00000000	          0.00000000	         54.37240400	        588.34282900	         52.71224000	          0.97484000	          0.00600000	         -0.36067800	          0.00000000	          5.02731000	          0.00000000	
          1.06550000	          0.00000000	          0.00000000	          0.00000000	          1.29875800	          0.00000000	         -0.10836000	          0.00000000	          0.00000000	          0.00000000	         54.60920900	        589.08134700	         52.87268400	          0.97496300	          0.00600000	         -0.36068000	          0.00000000	          5.03200100	          0.00000000	
          1.06600000	          0.00000000	          0.00000000	          0.00000000	          1.30003100	          0.00000000	         -0.10832700	          0.00000000	          0.00000000	          0.00000000	         54.84619700	        589.81729700	         53.03296000	          0.97508600	          0.00600000	         -0.36068100	          0.00000000	          5.03655500	          0.00000000	
          1.06650000	          0.00000000	          0.00000000	          0.00000000	          1.30130400	          0.00000000	         -0.10829500	          0.00000000	          0.00000000	          0.00000000	         55.08336600	        590.55060600	         53.19305200	          0.97520900	          0.00600000	         -0.36068200	          0.00000000	          5.04097400	          0.00000000	
          1.06700000	          0.00000000	          0.00000000	          0.00000000	          1.30257700	          0.00000000	         -0.10826200	          0.00000000	          0.00000000	          0.00000000	         55.32070900	        591.28120000	         53.35294500	          0.97533200	          0.00600000	         -0.36068400	          0.00000000	          5.04525600	          0.00000000	
          1.06750000	          0.00000000	          0.00000000	          0.00000000	          1.30385000	          0.00000000	         -0.10823000	          0.00000000	          0.00000000	          0.00000000	         55.55822200	        592.00900500	         53.51262300	          0.97545600	          0.00600000	         -0.36068500	          0.00000000	          5.04940100	          0.00000000	
          1.06800000	          0.00000000	          0.00000000	          0.00000000	          1.30512300	          0.00000000	         -0.10819700	          0.00000000	          0.00000000	          0.00000000	         55.79590200	        592.73394800	         53.67207100	          0.97558000	          0.00600000	         -0.36068600	          0.00000000	          5.05341000	          0.00000000	
          1.06850000	          0.00000000	          0.00000000	          0.00000000	          1.30639600	          0.00000000	         -0.10816400	          0.00000000	          0.00000000	          0.00000000	         56.03374200	        593.45595400	         53.83127300	          0.97570400	          0.00600000	         -0.36068700	          0.00000000	          5.05728200	          0.00000000	
          1.06900000	          0.00000000	          0.00000000	          0.00000000	          1.30766900	          0.00000000	         -0.10813200	          0.00000000	          0.00000000	          0.00000000	         56.27173900	        594.17495000	         53.99021300	          0.97582900	          0.00600000	         -0.36068800	          0.00000000	          5.06101700	          0.00000000	
          1.06950000	          0.00000000	          0.00000000	          0.00000000	          1.30894200	          0.00000000	         -0.10809900	          0.00000000	          0.00000000	          0.00000000	         56.50988700	        594.89086200	         54.14887600	          0.97595400	          0.00600000	         -0.36068900	          0.00000000	          5.06461500	          0.00000000	
          1.07000000	          0.00000000	          0.00000000	          0.00000000	          1.31021500	          0.00000000	         -0.10806700	          0.00000000	          0.00000000	          0.00000000	         56.74818300	        595.60361500	         54.30724500	          0.97607900	          0.00600000	         -0.36069000	          0.00000000	          5.06807600	          0.00000000	
          1.07050000	          0.00000000	          0.00000000	          0.00000000	          1.31148800	          0.00000000	         -0.10803400	          0.00000000	          0.00000000	          0.00000000	         56.98662100	        596.31313600	         54.46530500	          0.97620400	          0.00600000	         -0.36069100	          0.00000000	          5.07140000	          0.00000000	
          1.07100000	          0.00000000	          0.00000000	          0.00000000	          1.31276100	          0.00000000	         -0.10800100	          0.00000000	          0.00000000	          0.00000000	         57.22519600	        597.01935100	         54.62304000	          0.97632900	          0.00600000	         -0.36069200	          0.00000000	          5.07458700	          0.00000000	
          1.07150000	          0.00000000	          0.00000000	          0.00000000	          1.31403300	          0.00000000	         -0.10796900	          0.00000000	          0.00000000	          0.00000000	         57.46390400	        597.72218500	         54.78043400	          0.97645500	          0.00600000	         -0.36069300	          0.00000000	          5.07763700	          0.00000000	
          1.07200000	          0.00000000	          0.00000000	          0.00000000	          1.31530600	          0.00000000	         -0.10793600	          0.00000000	          0.00000000	          0.00000000	         57.70273900	        598.42156500	         54.93747100	          0.97658100	          0.00600000	         -0.36069300	          0.00000000	          5.08055000	          0.00000000	
          1.07250000	          0.00000000	          0.00000000	          0.00000000	          1.31657900	          0.00000000	         -0.10790400	          0.00000000	          0.00000000	          0.00000000	         57.94169800	        599.11741500	         55.09413500	          0.97670800	          0.00600000	         -0.36069400	          0.00000000	          5.08332600	          0.00000000	
          1.07300000	          0.00000000	          0.00000000	          0.00000000	          1.31785200	          0.00000000	         -0.10787100	          0.00000000	          0.00000000	          0.00000000	         58.18077400	        599.80966300	         55.25041100	          0.97683400	          0.00600000	         -0.36069500	          0.00000000	          5.08596500	          0.00000000	
          1.07350000	          0.00000000	          0.00000000	          0.00000000	          1.31912500	          0.00000000	         -0.10783800	          0.00000000	          0.00000000	          0.00000000	         58.41996400	        600.49823300	         55.40628100	          0.97696100	          0.00600000	         -0.36069500	          0.00000000	          5.08846700	          0.00000000	
